<svg xml:space="preserve" style="max-height: 500px" viewBox="0 0 195.4647 133.30693069306932" y="0px" x="0px" xmlns:xlink="http://www.w3.org/1999/xlink" xmlns="http://www.w3.org/2000/svg" id="Layer_1" version="1.1" width="195.4647" height="133.30693069306932">
<g>
	<path d="M268,67.9c3.4-1.2,6.1-3.2,8.1-5.9c2-2.7,3-6.1,3-9.9c0-3.2-0.5-6.1-1.4-8.6c-1-2.5-2.5-4.6-4.6-6.3&#10;&#9;&#9;c-2.1-1.7-4.7-3-7.8-3.9c-3.1-0.9-6.9-1.3-11.4-1.3H218v75h37c4.8,0,8.9-0.5,12.4-1.4c3.5-1,6.3-2.4,8.5-4.2s3.8-4.1,4.9-6.7&#10;&#9;&#9;c1-2.6,1.6-5.6,1.6-8.9c0-4.9-1.3-8.9-3.8-11.9C276,70.9,272.5,68.9,268,67.9z M237.4,46.8h12c2.1,0,3.8,0.2,5.1,0.5&#10;&#9;&#9;c1.3,0.3,2.4,0.8,3.2,1.4c0.8,0.6,1.4,1.4,1.7,2.3s0.5,2,0.5,3.3c0,1.2-0.2,2.3-0.5,3.2c-0.3,0.9-0.9,1.7-1.7,2.4&#10;&#9;&#9;c-0.8,0.6-1.9,1.1-3.3,1.5s-3.1,0.5-5.1,0.5h-11.9L237.4,46.8L237.4,46.8z M262.5,87.5c-0.4,1.1-1.1,1.9-2,2.6&#10;&#9;&#9;c-1,0.7-2.2,1.2-3.8,1.6c-1.6,0.4-3.5,0.5-5.9,0.5h-13.4V75h13.2c2.4,0,4.3,0.2,5.9,0.5c1.6,0.4,2.9,0.9,3.9,1.6s1.7,1.6,2.1,2.7&#10;&#9;&#9;s0.6,2.4,0.6,3.9C263.1,85.1,262.9,86.4,262.5,87.5z"/>
	<path d="M300.8,27.7c-3.1,0-5.4,0.8-7.1,2.4s-2.5,3.7-2.5,6.2s0.8,4.6,2.5,6.2s4.1,2.4,7.1,2.4c3.1,0,5.4-0.8,7.1-2.4&#10;&#9;&#9;s2.5-3.7,2.5-6.2s-0.8-4.6-2.5-6.2C306.2,28.5,303.8,27.7,300.8,27.7z"/>
	<rect height="56.8" width="16.5" y="50.2" x="292.5"/>
	<path d="M353.7,48.8c-4.4,0-8,0.9-11,2.8s-5.2,4-6.6,6.3v-7.7h-15.2v78.2h16.5V99.8c1.9,2.8,4.3,4.9,7.2,6.4&#10;&#9;&#9;c2.9,1.5,5.9,2.2,9.2,2.2c3.7,0,7.1-0.6,10.1-1.9c3-1.2,5.6-3.1,7.7-5.5c2.1-2.4,3.8-5.5,4.9-9.2c1.1-3.7,1.7-7.9,1.7-12.7V77&#10;&#9;&#9;c0-9.4-2.1-16.4-6.2-21.1C367.7,51.2,361.7,48.8,353.7,48.8z M361.2,79.1c0,2.6-0.3,4.8-0.9,6.8c-0.6,2-1.4,3.6-2.4,4.9&#10;&#9;&#9;c-1,1.3-2.2,2.3-3.6,2.9c-1.4,0.7-2.9,1-4.6,1s-3.3-0.3-4.9-0.9c-1.5-0.6-2.9-1.5-4-2.7s-2-2.7-2.6-4.4s-1-3.7-1-5.9v-5.4&#10;&#9;&#9;c0-2.1,0.3-4,1-5.6c0.6-1.6,1.5-3,2.6-4.1s2.4-1.9,4-2.5c1.5-0.5,3.2-0.8,4.9-0.8s3.3,0.3,4.7,0.9c1.4,0.6,2.6,1.5,3.6,2.7&#10;&#9;&#9;s1.8,2.7,2.4,4.5c0.5,1.8,0.8,4,0.8,6.5V79.1z"/>
	<path d="M402.4,70.6c0.6-1.8,1.4-3.3,2.5-4.5s2.3-2.1,3.8-2.7s3.1-0.9,4.8-0.9c2.9,0,5.2,0.7,6.7,2.1s2.6,3.4,3.2,5.9h16.9&#10;&#9;&#9;c-0.2-3-0.9-5.8-2.1-8.5c-1.2-2.6-2.9-4.9-5.1-6.9c-2.2-2-4.9-3.5-8.2-4.7c-3.2-1.1-7-1.7-11.3-1.7c-3.9,0-7.7,0.6-11.2,1.9&#10;&#9;&#9;s-6.6,3.1-9.2,5.5c-2.6,2.4-4.7,5.3-6.2,8.8s-2.3,7.5-2.3,12V79c0,4.9,0.7,9.2,2.1,12.9c1.4,3.6,3.4,6.7,6,9.1&#10;&#9;&#9;c2.6,2.4,5.6,4.2,9.2,5.5c3.5,1.2,7.4,1.8,11.6,1.8c3.9,0,7.5-0.5,10.7-1.5s5.9-2.4,8.2-4.3c2.3-1.9,4.2-4.2,5.5-6.9&#10;&#9;&#9;c1.4-2.7,2.1-5.7,2.4-9h-16.9c-0.6,2.6-1.7,4.6-3.5,5.9c-1.8,1.3-3.9,2-6.4,2c-1.8,0-3.4-0.3-4.9-0.9c-1.5-0.6-2.8-1.6-3.8-2.8&#10;&#9;&#9;c-1-1.3-1.8-2.9-2.4-4.8c-0.6-1.9-0.9-4.2-0.9-6.9V77C401.4,74.5,401.8,72.4,402.4,70.6z"/>
	<path d="M500.2,92.5V71.6c0-4.1-0.6-7.7-1.8-10.5c-1.2-2.9-2.9-5.2-5.1-7.1c-2.2-1.8-4.9-3.1-7.9-4c-3.1-0.8-6.5-1.2-10.3-1.2&#10;&#9;&#9;c-4,0-7.5,0.5-10.6,1.4s-5.7,2.2-7.8,3.8c-2.1,1.6-3.7,3.5-4.9,5.7c-1.1,2.2-1.8,4.6-1.9,7.1h16.5c0.1-1.9,0.9-3.2,2.1-4.1&#10;&#9;&#9;c1.3-0.9,3.3-1.3,6-1.3c2.9,0,5.1,0.7,6.7,2s2.5,3.7,2.5,7.1v2.4h-16.2c-7,0-12.2,1.5-15.7,4.5c-3.5,3-5.2,7.3-5.2,13&#10;&#9;&#9;c0,2.6,0.4,4.9,1.3,7.1c0.9,2.2,2.1,4.1,3.7,5.7c1.6,1.6,3.7,2.9,6.1,3.8c2.4,0.9,5.1,1.4,8.2,1.4c2.4,0,4.6-0.2,6.6-0.6&#10;&#9;&#9;c2-0.4,3.7-0.9,5.2-1.7c1.5-0.7,2.9-1.6,4.1-2.6c1.2-1,2.2-2.1,3.1-3.2c0,1.4,0.1,2.5,0.2,3.4c0.1,0.9,0.2,2,0.4,3.2H501&#10;&#9;&#9;c-0.3-2.1-0.5-4.3-0.6-6.6C500.3,98.1,500.2,95.5,500.2,92.5z M483.7,85.5c0,1.7-0.3,3.3-1,4.7c-0.6,1.4-1.5,2.6-2.6,3.5&#10;&#9;&#9;c-1.1,1-2.4,1.7-4,2.2c-1.5,0.5-3.2,0.8-4.9,0.8c-2.8,0-4.8-0.7-5.9-2c-1.2-1.4-1.8-3.1-1.8-5.1c0-1.7,0.6-3.2,1.8-4.5&#10;&#9;&#9;s3-1.9,5.4-1.9h13V85.5z"/>
	<path d="M539.8,48.8c-1.8,0-3.4,0.3-5,0.9c-1.5,0.6-2.9,1.3-4.1,2.2c-1.2,0.9-2.3,1.9-3.2,2.9s-1.6,2.1-2,3.1v-7.7h-15.2V107h16.5&#10;&#9;&#9;V73.9c0-1.6,0.2-3.1,0.6-4.4c0.4-1.4,1.1-2.6,1.9-3.6c0.9-1,2-1.8,3.3-2.4c1.4-0.6,3-0.9,4.9-0.9c1.7,0,3.2,0.1,4.5,0.4&#10;&#9;&#9;s2.1,0.5,2.5,0.8V49.6c-0.6-0.1-1.2-0.3-1.9-0.4C542,48.9,541,48.8,539.8,48.8z"/>
	<path d="M589.2,57.4c-1.9-2.8-4.3-4.9-7.2-6.4s-5.9-2.2-9.2-2.2c-3.9,0-7.3,0.6-10.3,1.8c-3,1.2-5.6,3-7.7,5.4&#10;&#9;&#9;c-2.1,2.4-3.7,5.3-4.8,8.8s-1.6,7.5-1.6,12.1V79c0,4.8,0.6,9,1.7,12.7c1.1,3.7,2.8,6.7,4.9,9.2s4.7,4.3,7.7,5.5s6.4,1.9,10.1,1.9&#10;&#9;&#9;c4.4,0,8-0.9,11-2.8c3-1.9,5.2-4,6.6-6.3v7.7h15.2v-75h-16.5L589.2,57.4L589.2,57.4z M589.2,80.7c0,2.2-0.3,4.2-1,5.9&#10;&#9;&#9;c-0.6,1.7-1.5,3.2-2.6,4.4s-2.4,2.1-4,2.7c-1.5,0.6-3.2,0.9-4.9,0.9c-1.6,0-3.2-0.3-4.6-1c-1.4-0.7-2.6-1.7-3.6-2.9&#10;&#9;&#9;c-1-1.3-1.8-2.9-2.4-4.9c-0.6-2-0.9-4.2-0.9-6.8v-2.1c0-2.5,0.3-4.7,0.8-6.5s1.3-3.3,2.4-4.5c1-1.2,2.2-2.1,3.6-2.7&#10;&#9;&#9;c1.4-0.6,2.9-0.9,4.7-0.9c1.7,0,3.3,0.3,4.9,0.8c1.5,0.5,2.9,1.4,4,2.5s2,2.5,2.6,4.1s1,3.5,1,5.6V80.7z"/>
	<path d="M661,77.1c-2.1-1.4-4.5-2.5-7.3-3.3c-2.7-0.8-5.7-1.4-8.8-1.8c-4.4-0.6-7.5-1.3-9.5-2.1c-2-0.8-3-2-3-3.5&#10;&#9;&#9;c0-1.4,0.6-2.5,1.9-3.5c1.2-1,3.5-1.5,6.8-1.5c2.1,0,3.9,0.5,5.4,1.6c1.4,1,2.4,2.5,2.8,4.3h16.5c-0.2-2.3-0.8-4.5-1.7-6.7&#10;&#9;&#9;s-2.4-4.2-4.3-5.9c-1.9-1.7-4.4-3.2-7.4-4.2c-3-1.1-6.8-1.6-11.2-1.6c-3.9,0-7.4,0.4-10.5,1.3s-5.7,2.1-7.9,3.7s-3.8,3.4-5,5.6&#10;&#9;&#9;c-1.1,2.1-1.7,4.5-1.7,7c0,3.1,0.6,5.7,1.8,7.8c1.2,2.1,2.8,3.8,4.8,5.1s4.4,2.4,7.2,3.2s5.7,1.4,8.9,1.9c2.6,0.4,4.7,0.9,6.3,1.3&#10;&#9;&#9;c1.6,0.4,2.9,0.9,3.9,1.3c1,0.5,1.6,1,2,1.5s0.5,1.1,0.5,1.8c0,1.6-0.8,3-2.4,4c-1.6,1-4.2,1.5-7.9,1.5c-3.6,0-6.2-0.6-7.6-1.7&#10;&#9;&#9;c-1.4-1.1-2.3-2.5-2.7-4.2h-16.5c0.1,2.6,0.7,5,1.8,7.2s2.7,4.2,4.8,5.9s4.9,3,8.2,4s7.3,1.4,11.9,1.4c4.4,0,8.3-0.4,11.6-1.3&#10;&#9;&#9;c3.3-0.9,6.1-2.1,8.4-3.8c2.2-1.6,3.9-3.5,5.1-5.8c1.1-2.2,1.7-4.7,1.7-7.4c0-3-0.6-5.6-1.8-7.7C664.8,80.3,663.1,78.5,661,77.1z"/>
	<path d="M131.2,47.2c-9.6-8.5-22-13.2-35-13.2c-12.1,0-24,4.2-33.3,11.9l12.3,15c5.9-4.8,13.4-7.5,21.1-7.5c8.2,0,16,3,22.1,8.4&#10;&#9;&#9;L131.2,47.2z"/>
	<path d="M96.3,24.4c15.2,0,29.9,5.5,41.3,15.6l12.9-14.5C135.6,12.3,116.3,5,96.4,5c-18.8,0-37.1,6.5-51.6,18.4l12.3,15.1&#10;&#9;&#9;C68.1,29.3,81.8,24.4,96.3,24.4z"/>
	<path d="M158.5,30.4l-36.9,41.8l0,0L97.5,99.5l20.1,20.3c5.2,5.3,12.5,8.3,19.9,8.3c0.3,0,0.5,0,0.8,0c7.7-0.2,15.1-3.7,20.2-9.5&#10;&#9;&#9;c4.6-5.2,6.9-11.6,7-18.1c6.6-0.9,12.7-4.2,17.1-9.2c9.9-11.2,9.3-28.1-1.4-38.5L158.5,30.4z M144,105.7c-1.6,1.8-3.8,2.8-6.2,2.9&#10;&#9;&#9;c-2.4,0.1-4.7-0.8-6.4-2.5l-7.3-7.4L135.3,86l6.4,6.5c0.8,0.8,1.7,1.6,2.6,2.3C146.8,97.9,146.8,102.5,144,105.7z M168.1,78.4&#10;&#9;&#9;c-1.6,1.8-3.8,2.8-6.2,2.9c-1.7,0-3.2-0.4-4.6-1.2l-0.1-0.1l-8.9-8.7l11.2-12.7l8.1,8C170.9,69.7,171.1,74.9,168.1,78.4z"/>
	<path d="M73.4,72.2L36.5,30.4L13.8,52.7C3.2,63.1,2.6,80.1,12.4,91.2c4.4,5,10.5,8.3,17.1,9.2c0.1,6.5,2.4,12.9,7,18.1&#10;&#9;&#9;c5.1,5.8,12.5,9.2,20.2,9.5c0.3,0,0.5,0,0.8,0c7.4,0,14.6-3,19.9-8.3l20.1-20.3L73.4,72.2L73.4,72.2z M27,78.4&#10;&#9;&#9;c-3-3.4-2.8-8.6,0.4-11.8l8.1-8l11.2,12.7L37.8,80l-0.1,0.1c-1.3,0.8-2.9,1.2-4.6,1.2C30.8,81.2,28.6,80.2,27,78.4z M70.9,98.7&#10;&#9;&#9;l-7.3,7.4c-1.7,1.7-3.9,2.6-6.4,2.5c-2.4-0.1-4.6-1.1-6.2-2.9c-2.8-3.1-2.8-7.7-0.3-11c0.9-0.7,1.8-1.5,2.6-2.3l6.4-6.5L70.9,98.7z"/>
	<path d="M97.6,85.8c5.5-6.1,11-12.2,16.5-18.4c-1.8-1.3-7.7-5.4-16.3-5.5c-9-0.1-15.1,4.2-16.9,5.5L97.6,85.8z"/>
</g>
</svg>